<svg xmlns="http://www.w3.org/2000/svg" width="24" height="25" fill="none"><path fill="#000" d="m21.319 20.983-6.087-6.079a6.951 6.951 0 0 0 1.456-4.278 6.974 6.974 0 0 0-2.06-4.964 6.984 6.984 0 0 0-4.972-2.057 6.994 6.994 0 0 0-4.97 2.057 6.96 6.96 0 0 0-2.061 4.964c0 1.875.734 3.64 2.06 4.964a6.98 6.98 0 0 0 4.971 2.058 6.98 6.98 0 0 0 4.282-1.451l6.087 6.075a.19.19 0 0 0 .21.042.193.193 0 0 0 .062-.042l1.022-1.018a.19.19 0 0 0 .041-.209.19.19 0 0 0-.041-.062Zm-7.95-6.65a5.226 5.226 0 0 1-3.713 1.536 5.225 5.225 0 0 1-3.712-1.535 5.211 5.211 0 0 1-1.538-3.708c0-1.4.546-2.717 1.538-3.707a5.225 5.225 0 0 1 3.712-1.536c1.402 0 2.721.543 3.713 1.536a5.21 5.21 0 0 1 1.537 3.707c0 1.4-.546 2.717-1.537 3.708Z"/></svg>