<svg xmlns="http://www.w3.org/2000/svg" width="30" height="32" fill="none"><g clip-path="url(#a)"><path fill="#fff" d="M22 0H4a4 4 0 0 0-4 4v24a4 4 0 0 0 4 4h18a4 4 0 0 0 4-4V4c0-2.21-1.794-4-4-4Zm-9 8a4 4 0 1 1 0 8 4 4 0 0 1 0-8Zm6 16H7c-.55 0-1-.45-1-1 0-2.762 2.238-5 5-5h4a5 5 0 0 1 5 5c0 .55-.45 1-1 1ZM29 4h-1v6h1c.55 0 1-.45 1-1V5c0-.553-.45-1-1-1Zm0 8h-1v6h1c.55 0 1-.45 1-1v-4c0-.55-.45-1-1-1Zm0 8h-1v6h1a1 1 0 0 0 1-1v-4c0-.55-.45-1-1-1Z"/></g><defs><clipPath id="a"><path fill="#fff" d="M0 0h30v32H0z"/></clipPath></defs></svg>