<svg xmlns="http://www.w3.org/2000/svg" width="20" height="18" fill="none"><path fill="#B20000" d="M19.268 16.633c.404 0 .732.306.732.684 0 .346-.275.631-.632.677l-.1.006h-7.634c-.404 0-.731-.306-.731-.683 0-.346.275-.633.632-.678l.1-.006h7.633ZM11.844.971c1.385-1.295 3.632-1.295 5.017 0L18.3 2.314c1.386 1.294 1.386 3.393 0 4.687L7.49 17.099a3.417 3.417 0 0 1-2.33.9H.732C.32 18-.01 17.684 0 17.3l.112-4.172c.022-.789.367-1.54.964-2.099L11.844.971Zm-.837 2.713L2.11 11.995c-.332.31-.524.729-.536 1.167l-.093 3.47h3.677c.432 0 .848-.141 1.177-.398l.119-.102 8.94-8.35-4.388-4.098Zm4.82-1.747c-.815-.76-2.135-.76-2.949 0l-.836.78 4.387 4.098.836-.78a1.855 1.855 0 0 0 .128-2.624l-.128-.13-1.439-1.344Z"/></svg>