<svg xmlns="http://www.w3.org/2000/svg" width="20" height="20" fill="none"><path fill="#fff" d="m19.472 5.348-8.835-3.953a1.6 1.6 0 0 0-1.325 0L.502 5.348c-.3.136-.502.496-.502.902s.201.768.502.902l1.875.84A6.113 6.113 0 0 0 1.61 10.1c-.358.19-.61.634-.61 1.15 0 .389.15.722.373.952l-.776 5.82c-.05.38.184.728.493.728h1.82c.309 0 .544-.347.493-.728l-.776-5.82c.223-.23.373-.597.373-.952 0-.402-.162-.743-.397-.972a4.567 4.567 0 0 1 .779-1.837l5.956 2.665a1.6 1.6 0 0 0 1.326 0l8.834-3.953c.302-.137.502-.497.502-.903s-.2-.766-.528-.902Zm-8.5 6.933A2.214 2.214 0 0 1 10 12.5c-.341 0-.678-.073-1-.217l-4.537-2.03L4 15.833c0 1.613 2.66 2.918 6 2.918 3.284 0 6-1.305 6-2.917l-.462-5.582-4.566 2.03Z"/></svg>