<svg xmlns="http://www.w3.org/2000/svg" width="32" height="32" fill="none"><g clip-path="url(#a)"><path fill="#fff" d="M5.333 24H20c.733 0 1.333-.6 1.333-1.333 0-.734-.6-1.334-1.333-1.334H5.333c-.733 0-1.333.6-1.333 1.334C4 23.4 4.6 24 5.333 24Zm0-6.667H16c.733 0 1.333-.6 1.333-1.333s-.6-1.333-1.333-1.333H5.333C4.6 14.667 4 15.267 4 16s.6 1.333 1.333 1.333ZM4 9.333c0 .734.6 1.334 1.333 1.334H20c.733 0 1.333-.6 1.333-1.334C21.333 8.6 20.733 8 20 8H5.333C4.6 8 4 8.6 4 9.333ZM27.067 19.84 23.227 16l3.84-3.84c.52-.52.52-1.36 0-1.88-.52-.52-1.36-.52-1.88 0L20.4 15.067c-.52.52-.52 1.36 0 1.88l4.787 4.786c.52.52 1.36.52 1.88 0 .506-.52.52-1.373 0-1.893Z"/></g><defs><clipPath id="a"><path fill="#fff" d="M0 0h32v32H0z"/></clipPath></defs></svg>