<svg xmlns="http://www.w3.org/2000/svg" width="22" height="20" fill="none"><g clip-path="url(#a)"><path fill="#fff" d="M10.997 12.5c1.973 0 3.544-1.819 3.544-4.062 0-2.244-1.6-4.063-3.544-4.063-1.974 0-3.545 1.819-3.545 4.063-.03 2.242 1.571 4.062 3.545 4.062Zm1.718 1.25h-3.43c-2.699 0-4.885 2.332-4.885 5.207 0 .578.437 1.043.976 1.043h11.248c.54 0 .976-.465.976-1.043 0-2.875-2.186-5.207-4.885-5.207Zm4.885-7.5c1.519 0 2.75-1.4 2.75-3.125C20.35 1.4 19.12 0 17.6 0c-1.519 0-2.75 1.4-2.75 3.125 0 1.726 1.23 3.125 2.75 3.125ZM6.322 8.438c0-.213.033-.416.055-.622-.375-.234-.788-.316-1.224-.316H3.028C1.356 7.5 0 9.133 0 11.145c0 .402.271.73.606.73h6.857a5.693 5.693 0 0 1-1.141-3.437ZM4.4 6.25c1.519 0 2.75-1.4 2.75-3.125C7.15 1.4 5.92 0 4.4 0 2.881 0 1.65 1.4 1.65 3.125c0 1.726 1.231 3.125 2.75 3.125ZM18.972 7.5h-2.126c-.44 0-.855.119-1.233.322.02.205.055.405.055.616 0 1.316-.44 2.508-1.14 3.437h6.865c.335 0 .607-.328.607-.73C22 9.133 20.646 7.5 18.972 7.5Z"/></g><defs><clipPath id="a"><path fill="#fff" d="M0 0h22v20H0z"/></clipPath></defs></svg>